<svg xmlns="http://www.w3.org/2000/svg" viewBox="0 0 64 64" role="img" aria-label="cryptos.json Studio">
  <defs>
    <linearGradient id="tile" x1="0" y1="0" x2="1" y2="1">
      <stop offset="0" stop-color="#4b8dff"/>
      <stop offset="0.55" stop-color="#2f8be8"/>
      <stop offset="1" stop-color="#1fd1e8"/>
    </linearGradient>
    <linearGradient id="gloss" x1="0" y1="0" x2="0" y2="1">
      <stop offset="0" stop-color="#ffffff" stop-opacity="0.28"/>
      <stop offset="0.6" stop-color="#ffffff" stop-opacity="0"/>
    </linearGradient>
  </defs>
  <rect width="64" height="64" rx="15" fill="url(#tile)"/>
  <rect width="64" height="64" rx="15" fill="url(#gloss)"/>
  <g transform="translate(-2.56 -2.56) scale(1.08)" fill="none" stroke="#ffffff" stroke-width="3.6" stroke-linecap="round" stroke-linejoin="round">
    <path d="M20.5 17C17.5 17 17 18.6 17 21v6c0 3-1.5 4-3.5 5 2 1 3.5 2 3.5 5v6c0 2.4.5 4 3.5 4"/>
    <path d="M43.5 17c3 0 3.5 1.6 3.5 4v6c0 3 1.5 4 3.5 5-2 1-3.5 2-3.5 5v6c0 2.4-.5 4-3.5 4"/>
  </g>
  <g fill="#ffffff" transform="translate(-2.56 -2.56) scale(1.08)">
    <rect x="25.5" y="33" width="5.5" height="10" rx="2.75" opacity="0.8"/>
    <rect x="33" y="25" width="5.5" height="18" rx="2.75"/>
  </g>
</svg>
